<?xml version="1.0" standalone="no"?>
<!DOCTYPE svg PUBLIC "-//W3C//DTD SVG 20010904//EN"
 "http://www.w3.org/TR/2001/REC-SVG-20010904/DTD/svg10.dtd">
<svg version="1.0" xmlns="http://www.w3.org/2000/svg"
 width="791.000000pt" height="759.000000pt" viewBox="0 0 791.000000 759.000000"
 preserveAspectRatio="xMidYMid meet">

<g transform="translate(0.000000,759.000000) scale(0.100000,-0.100000)"
fill="#000000" stroke="none">
<path d="M4443 7270 c-57 -12 -89 -35 -118 -85 -47 -80 -28 -121 88 -187 83
-46 319 -169 527 -275 63 -31 117 -61 118 -65 2 -5 9 -8 15 -8 7 0 125 -56
264 -126 285 -142 311 -149 364 -99 36 35 54 67 62 113 5 26 0 43 -24 82 -46
74 -1 49 -684 385 -143 70 -299 150 -346 177 -71 39 -212 101 -222 97 -1 -1
-21 -5 -44 -9z"/>
<path d="M4287 6859 c-15 -22 -33 -59 -41 -82 -8 -23 -29 -71 -46 -107 -59
-121 -69 -145 -156 -343 -74 -171 -86 -207 -91 -270 -9 -112 17 -218 89 -367
33 -69 68 -147 79 -173 32 -81 23 -184 -28 -306 -31 -75 -29 -80 48 -134 30
-20 62 -43 72 -49 9 -7 17 -18 17 -26 0 -7 7 -15 15 -18 8 -4 15 -12 15 -19 0
-8 9 -10 25 -7 26 4 55 46 62 87 2 11 8 22 13 23 6 2 10 10 10 18 0 19 52 123
76 151 22 26 111 47 247 58 76 6 87 5 87 -9 0 -9 6 -16 14 -16 9 0 12 7 9 20
-4 15 0 20 13 20 11 0 31 6 46 14 15 8 40 17 57 21 16 3 35 12 41 20 6 8 24
17 40 20 16 3 34 13 41 21 6 8 16 14 21 14 18 0 89 83 115 134 14 28 37 68 50
89 22 35 28 38 54 33 28 -5 29 -4 29 29 0 24 5 35 14 35 19 0 25 21 27 90 1
64 16 130 28 130 11 0 32 60 25 71 -6 11 10 41 41 75 14 15 25 36 25 48 0 12
11 45 25 74 14 30 25 56 25 58 0 2 -26 15 -57 29 -267 120 -895 437 -934 471
-9 8 -36 21 -62 30 -25 8 -51 22 -58 30 -6 8 -16 14 -21 14 -5 0 -18 9 -30 20
-31 28 -41 25 -71 -21z"/>
<path d="M6320 5604 c-148 -55 -180 -69 -180 -81 0 -19 77 -172 167 -331 l25
-44 26 25 c15 14 61 41 102 60 117 54 116 52 90 117 -28 71 -124 241 -147 262
-17 14 -23 14 -83 -8z"/>
<path d="M5920 5503 c-48 -21 -143 -57 -280 -104 -182 -64 -292 -106 -375
-144 -100 -45 -120 -45 -142 0 -20 42 -36 44 -100 9 -26 -14 -56 -23 -67 -20
-10 3 -24 -1 -32 -8 -7 -7 -33 -16 -59 -19 -58 -8 -123 -59 -156 -122 -13 -25
-30 -45 -36 -45 -7 0 -13 -6 -13 -13 0 -21 -40 -49 -90 -62 -3 -1 -18 -7 -35
-14 -16 -7 -43 -15 -60 -18 -16 -4 -55 -19 -85 -34 -30 -14 -65 -30 -77 -33
-13 -4 -23 -12 -23 -18 0 -17 151 -462 160 -472 5 -4 19 -1 31 8 13 9 29 16
37 16 17 0 435 157 484 181 21 11 41 19 46 19 5 0 12 -33 16 -72 13 -146 35
-205 166 -443 21 -38 38 -72 37 -75 0 -3 7 -23 17 -45 10 -24 18 -70 19 -115
2 -86 -16 -133 -85 -220 -33 -42 -40 -58 -40 -93 2 -106 109 -102 226 7 28 25
55 46 61 46 12 0 44 66 71 149 32 98 10 241 -75 501 -16 47 -40 135 -55 195
-38 160 -46 185 -55 185 -5 0 -30 -10 -57 -21 -40 -18 -59 -21 -121 -15 -87 7
-101 13 -159 74 -106 110 -106 257 1 350 42 37 84 42 103 12 7 -11 21 -20 32
-20 25 0 25 9 3 25 -16 12 -16 16 -3 40 14 26 17 27 77 22 50 -4 70 -11 100
-35 65 -51 141 -177 143 -235 0 -10 -9 -38 -20 -62 -24 -52 -21 -62 28 -95 80
-54 241 -208 446 -428 78 -84 96 -109 96 -134 0 -32 -7 -40 -173 -196 -75 -71
-84 -100 -47 -159 29 -49 50 -55 149 -48 137 11 122 23 386 -295 44 -53 107
-130 140 -172 77 -97 112 -122 164 -115 59 7 109 35 175 98 34 31 87 78 118
105 31 27 123 109 203 183 170 155 194 191 175 260 -13 48 -113 160 -255 284
-44 38 -105 93 -135 122 -30 28 -136 125 -235 215 -99 90 -189 173 -200 184
-11 12 -43 41 -70 64 -91 80 -142 148 -161 218 -16 59 -16 68 -1 120 19 65 23
53 -89 251 -35 62 -64 117 -64 123 0 6 -5 16 -10 23 -6 7 -22 26 -36 42 -14
17 -34 47 -45 68 -21 41 -35 44 -89 20z"/>
<path d="M5180 4990 c0 -5 -9 -10 -20 -10 -25 0 -88 -62 -96 -95 -12 -49 6
-98 52 -142 50 -48 69 -52 131 -24 28 13 49 33 67 63 28 49 32 77 15 111 -19
36 -72 87 -91 87 -10 0 -18 5 -18 10 0 6 -9 10 -20 10 -11 0 -20 -4 -20 -10z"/>
<path d="M4035 4882 c-44 -21 -107 -49 -140 -62 -33 -13 -63 -26 -67 -29 -4
-3 9 -46 29 -95 19 -49 53 -137 73 -195 21 -58 55 -151 75 -206 21 -55 40
-110 42 -122 l5 -22 47 18 c25 10 52 16 59 14 6 -3 12 -1 12 4 0 11 98 38 119
34 8 -1 20 4 25 11 6 8 19 17 29 21 9 3 17 15 17 25 0 20 -64 205 -98 283 -11
26 -28 75 -37 110 -9 35 -21 73 -26 84 -4 11 -19 52 -32 90 -13 39 -30 71 -38
72 -8 1 -50 -15 -94 -35z"/>
<path d="M3420 4603 c0 -8 -14 -13 -37 -13 -24 0 -48 -9 -71 -26 -22 -17 -37
-23 -41 -16 -10 16 -83 17 -195 3 -119 -15 -137 -21 -165 -57 -39 -49 -19
-130 39 -154 37 -15 98 -6 374 60 49 11 92 17 96 13 4 -4 10 -32 12 -61 l5
-54 -76 -63 c-42 -35 -93 -84 -114 -109 -21 -26 -78 -73 -126 -105 -145 -98
-186 -165 -145 -240 29 -54 65 -75 110 -66 29 5 54 23 110 81 40 41 77 74 82
74 5 0 15 14 22 30 7 17 16 30 21 30 5 0 9 6 9 13 0 13 40 57 53 57 3 0 17 10
30 23 13 12 60 55 106 96 45 40 94 92 108 115 14 22 37 50 51 61 14 11 37 30
50 43 l23 22 -21 30 c-15 21 -30 30 -49 30 -28 0 -61 -26 -61 -48 0 -18 -44
-14 -79 6 -33 18 -41 42 -15 42 9 0 38 19 66 41 42 36 49 46 46 72 -4 44 -52
69 -144 77 -57 4 -74 3 -74 -7z"/>
<path d="M3709 4175 c-32 -17 -68 -73 -149 -230 -72 -141 -84 -195 -50 -238
35 -44 75 -61 107 -45 51 24 114 146 187 361 29 84 34 111 26 127 -21 40 -74
51 -121 25z"/>
<path d="M7270 3502 c-47 -49 -235 -220 -311 -283 l-43 -36 104 -111 c58 -62
111 -112 118 -112 19 0 242 177 325 257 70 68 79 91 55 136 -12 23 -188 197
-197 196 -4 0 -26 -21 -51 -47z"/>
<path d="M3716 3393 c-2 -3 -318 -4 -702 -4 -773 0 -773 0 -909 -64 -88 -42
-165 -112 -318 -289 -67 -77 -153 -174 -192 -216 -38 -42 -98 -110 -132 -153
-71 -87 -107 -109 -221 -136 -113 -27 -271 -85 -397 -146 -185 -90 -255 -169
-321 -365 l-29 -85 2 -240 c2 -207 5 -249 21 -303 41 -130 100 -171 248 -172
l91 0 6 158 c6 173 21 232 93 357 41 73 57 91 155 176 91 79 145 112 242 147
66 24 85 26 227 26 134 0 163 -3 218 -22 108 -38 200 -100 300 -202 107 -109
149 -172 188 -285 25 -71 28 -95 28 -212 1 -123 2 -132 21 -138 29 -10 1429
-18 1561 -10 l111 7 -1 146 c-1 120 2 157 18 202 70 204 221 376 395 450 118
50 174 61 312 59 105 -2 139 -6 206 -28 119 -39 230 -111 330 -214 139 -144
192 -284 193 -508 0 -92 1 -97 23 -103 43 -11 177 -6 205 8 32 17 84 71 102
106 40 78 58 277 42 465 -8 94 -14 121 -45 185 -19 41 -47 102 -61 134 -37 83
-66 118 -149 181 -120 90 -214 130 -450 191 -117 31 -230 64 -252 74 -27 13
-108 90 -256 247 -119 125 -240 255 -269 288 -49 57 -52 62 -46 103 3 25 2 42
-4 42 -6 0 -10 -4 -10 -10 0 -19 -76 -11 -95 10 -68 75 -247 142 -388 145 -48
1 -89 0 -91 -2z m-768 -597 c-3 -247 -7 -317 -17 -330 -13 -15 -62 -17 -567
-14 l-552 3 -25 23 c-53 50 -46 65 98 227 221 248 315 343 363 367 45 22 59
23 332 28 157 3 305 7 329 8 l43 2 -4 -314z m1002 279 c25 -13 72 -52 105 -86
110 -117 380 -420 394 -443 17 -29 10 -49 -26 -73 -25 -17 -67 -18 -589 -21
l-563 -3 -12 23 c-9 16 -14 115 -19 323 -4 165 -6 302 -4 305 1 3 152 3 335 1
325 -3 335 -4 379 -26z"/>
<path d="M7445 3052 c-33 -32 -71 -65 -84 -74 l-23 -17 30 -53 c67 -117 87
-234 58 -331 -8 -26 -35 -75 -60 -111 -69 -97 -149 -153 -297 -207 -130 -47
-210 -63 -443 -85 -191 -18 -260 -38 -301 -86 -21 -24 -25 -39 -21 -61 8 -40
65 -116 92 -123 35 -9 499 62 626 95 226 60 323 104 432 197 42 36 76 69 76
72 0 4 19 27 41 51 45 50 79 113 100 186 21 74 18 284 -5 360 -31 104 -118
245 -150 245 -6 0 -38 -26 -71 -58z"/>
<path d="M1433 1865 c-95 -32 -207 -100 -248 -150 -18 -22 -55 -83 -81 -134
-47 -92 -49 -98 -52 -196 -2 -56 1 -127 8 -158 28 -139 145 -294 266 -355 240
-121 489 -63 670 156 70 85 102 154 121 256 23 134 -3 236 -92 361 -145 204
-381 292 -592 220z"/>
<path d="M4616 1875 c-105 -27 -261 -116 -304 -174 -43 -58 -111 -210 -122
-272 -29 -160 41 -364 164 -475 130 -117 301 -169 458 -139 92 17 115 26 181
68 101 66 202 190 239 296 25 70 35 222 19 286 -20 78 -70 172 -124 232 -62
68 -180 147 -251 168 -76 23 -191 27 -260 10z"/>
<path d="M624 541 c-72 -44 -92 -106 -54 -168 34 -57 59 -63 253 -63 96 0 202
3 237 7 62 6 63 7 80 47 10 23 20 73 22 111 l3 70 -60 6 c-33 4 -148 7 -255 8
-175 1 -198 -1 -226 -18z"/>
<path d="M1420 549 c-35 -7 -55 -19 -94 -59 -42 -44 -48 -55 -42 -81 8 -41 35
-75 74 -95 30 -14 95 -16 575 -15 298 1 560 5 582 10 28 7 52 23 82 55 36 40
46 46 80 45 33 0 42 -6 68 -42 54 -74 39 -72 515 -69 233 2 447 7 475 13 79
14 131 86 106 148 -24 57 -64 89 -122 96 -30 3 -245 5 -479 3 -477 -3 -456 0
-506 -80 -14 -22 -35 -40 -51 -44 -23 -6 -33 0 -77 51 -45 51 -58 58 -101 66
-67 11 -1028 9 -1085 -2z"/>
<path d="M4175 547 c-46 -21 -85 -73 -85 -111 0 -38 32 -89 73 -120 27 -20 43
-21 285 -24 179 -3 269 0 299 9 50 14 113 76 113 112 0 33 -62 102 -110 121
-57 23 -531 34 -575 13z"/>
<path d="M5139 551 c-72 -7 -88 -16 -119 -67 -21 -33 -21 -33 -1 -71 10 -21
33 -51 50 -67 41 -40 84 -44 396 -42 224 1 254 3 288 20 45 22 66 50 74 99 5
31 1 39 -34 74 -22 22 -53 43 -69 47 -38 10 -500 16 -585 7z"/>
</g>
</svg>
