<svg xmlns="http://www.w3.org/2000/svg" version="1.0" width="484.000000pt" height="367.000000pt" viewBox="0 0 484.000000 367.000000" preserveAspectRatio="xMidYMid meet">

<g transform="translate(0.000000,367.000000) scale(0.100000,-0.100000)" fill="#000000" stroke="none">
<path d="M1057 3389 c-82 -19 -174 -95 -210 -173 -38 -78 -77 -167 -77 -171 0 -3 -16 -40 -36 -82 -19 -43 -42 -93 -50 -110 -8 -18 -20 -48 -28 -65 -8 -18 -31 -68 -50 -111 -20 -42 -36 -82 -36 -87 0 -6 -16 -28 -36 -50 l-36 -40 138 -65 c77 -36 146 -69 154 -74 23 -12 39 -70 29 -106 -13 -44 -144 -162 -190 -170 -43 -8 -118 16 -177 57 -44 31 -111 112 -112 137 0 29 -29 -12 -61 -87 -60 -143 -72 -202 -77 -385 l-4 -168 31 -63 31 -63 0 -220 c0 -207 1 -220 20 -241 20 -21 27 -22 268 -22 183 0 253 3 265 13 14 10 17 36 19 167 l3 155 1120 0 1120 0 3 -150 c2 -121 6 -152 19 -167 15 -16 38 -18 269 -18 250 0 253 0 268 22 13 19 16 60 16 245 0 129 4 224 9 228 6 3 -10 24 -35 47 -24 22 -46 39 -47 37 -2 -2 -13 -18 -25 -36 -68 -98 -277 -97 -415 3 -67 49 -89 87 -84 147 4 44 3 48 -22 52 -59 11 -189 60 -243 92 -32 18 -84 58 -117 88 l-59 55 -661 0 -662 0 -82 32 c-45 17 -91 40 -102 50 -19 17 1 18 703 18 622 0 722 2 722 14 0 8 -5 18 -10 21 -22 13 -70 139 -89 233 -14 68 -14 226 0 294 24 119 68 222 130 305 22 29 39 55 39 58 0 3 -58 5 -128 5 -90 0 -134 -4 -146 -13 -16 -12 -17 -27 -14 -130 l3 -117 -360 0 -360 0 3 115 c3 80 0 120 -8 130 -10 12 -50 15 -215 15 -252 0 -239 8 -234 -148 l4 -110 -60 -6 c-94 -10 -223 -45 -301 -82 -84 -40 -98 -42 -91 -11 4 19 59 148 150 349 13 29 30 69 37 88 37 94 66 135 114 165 l49 30 912 0 c964 0 937 1 984 -43 7 -7 20 -11 28 -8 8 3 23 6 34 6 47 0 -3 54 -91 98 l-55 27 -880 2 c-500 1 -897 -3 -918 -8z m-384 -1489 c108 -41 187 -120 187 -188 0 -106 -168 -214 -333 -214 -169 0 -272 192 -178 332 27 41 80 83 116 93 39 11 151 -1 208 -23z"/>
<path d="M3095 3155 c-147 -23 -262 -83 -362 -186 -75 -77 -112 -137 -152 -244 -32 -87 -40 -241 -16 -337 51 -214 227 -404 433 -468 86 -27 204 -35 287 -21 38 7 73 15 77 17 5 3 -12 24 -38 47 -46 41 -48 41 -114 38 -207 -9 -401 99 -490 273 -43 85 -60 157 -60 256 0 152 46 265 150 371 226 230 630 196 809 -70 62 -92 83 -159 89 -293 l5 -117 38 -37 c21 -21 41 -35 44 -32 14 14 27 133 22 213 -7 123 -45 231 -118 330 -102 140 -266 241 -424 260 -27 4 -61 8 -75 10 -14 2 -61 -3 -105 -10z"/>
<path d="M3075 2971 c-142 -38 -261 -148 -320 -296 -25 -63 -27 -78 -23 -165 4 -81 10 -105 37 -163 76 -160 245 -276 404 -277 20 0 37 1 37 3 0 1 -55 58 -123 127 -145 148 -168 188 -169 294 0 154 75 255 219 293 68 17 136 12 202 -18 29 -13 91 -65 174 -147 l130 -127 -6 70 c-10 116 -52 202 -138 287 -35 34 -85 69 -126 89 -60 29 -79 33 -168 35 -55 2 -113 0 -130 -5z"/>
<path d="M324 2845 c-42 -18 -84 -74 -84 -113 0 -22 11 -42 38 -72 l39 -40 105 0 c136 0 148 9 148 110 0 83 -5 97 -39 114 -35 17 -168 18 -207 1z"/>
<path d="M3110 2708 c-116 -67 -162 -195 -109 -301 14 -27 148 -169 370 -392 l349 -350 162 162 163 163 -349 349 c-192 192 -366 358 -388 370 -53 28 -149 28 -198 -1z"/>
<path d="M3918 1787 c-60 -60 -108 -111 -108 -112 0 -2 21 -24 47 -49 l47 -47 115 115 116 116 -45 45 c-24 25 -49 44 -55 43 -5 0 -58 -50 -117 -111z"/>
<path d="M4061 1653 l-113 -115 37 -38 37 -38 115 116 115 115 -39 37 -38 38 -114 -115z"/>
<path d="M4180 1535 l-115 -116 101 -99 c89 -87 106 -99 145 -105 25 -4 56 -2 73 5 16 6 36 8 45 5 17 -5 79 -105 99 -160 44 -119 55 -285 27 -419 -17 -83 -78 -240 -118 -303 l-26 -41 25 -17 c13 -9 29 -13 35 -10 16 11 97 180 123 257 36 110 46 169 46 278 0 169 -34 283 -123 412 l-39 57 13 50 c21 82 4 119 -105 229 l-91 93 -115 -116z"/>
</g>
</svg>