<?xml version="1.0" standalone="no"?>
<!DOCTYPE svg PUBLIC "-//W3C//DTD SVG 20010904//EN"
 "http://www.w3.org/TR/2001/REC-SVG-20010904/DTD/svg10.dtd">
<svg version="1.0" xmlns="http://www.w3.org/2000/svg"
 width="1535.000000pt" height="455.000000pt" viewBox="0 0 1535.000000 455.000000"
 preserveAspectRatio="xMidYMid meet">

<g transform="translate(0.000000,455.000000) scale(0.100000,-0.100000)"
fill="#000000" stroke="none">
<path d="M410 4107 c0 -1 -40 -202 -90 -445 -49 -244 -90 -447 -90 -453 0 -5
177 -9 458 -9 l457 0 89 443 c49 243 91 448 94 455 3 9 -92 12 -457 12 -254 0
-461 -1 -461 -3z"/>
<path d="M2252 4063 c-27 -127 -172 -846 -172 -854 0 -5 187 -9 458 -9 l457 0
89 443 c49 243 91 448 94 455 3 9 -92 12 -456 12 l-460 0 -10 -47z"/>
<path d="M4102 4063 c-27 -127 -172 -846 -172 -854 0 -5 187 -9 458 -9 l457 0
89 443 c49 243 91 448 94 455 3 9 -92 12 -456 12 l-460 0 -10 -47z"/>
<path d="M8983 3966 c-108 -35 -163 -139 -118 -225 16 -32 42 -44 139 -67 84
-18 103 -28 111 -54 14 -43 -45 -90 -112 -90 -35 0 -93 34 -93 55 0 12 -13 15
-55 15 -55 0 -55 0 -49 -27 19 -76 81 -113 192 -113 55 0 79 5 122 28 30 15
63 39 73 53 27 38 33 108 13 147 -20 39 -53 56 -146 78 -40 9 -80 24 -90 34
-38 38 12 100 82 100 49 0 76 -14 88 -46 8 -21 16 -24 55 -24 40 0 45 2 45 23
0 33 -35 84 -71 103 -43 22 -134 27 -186 10z"/>
<path d="M9530 3971 c-121 -37 -190 -145 -190 -299 0 -61 5 -87 23 -122 34
-67 65 -84 155 -88 102 -5 153 20 200 98 17 30 32 58 32 62 0 4 -22 8 -49 8
-45 0 -51 -3 -70 -33 -39 -64 -114 -79 -160 -32 -23 23 -26 33 -26 103 0 94
23 159 71 202 57 49 123 38 150 -26 14 -32 17 -34 65 -34 l51 0 -7 33 c-22
105 -132 162 -245 128z"/>
<path d="M5350 3946 c0 -13 -3 -31 -6 -40 -5 -14 4 -16 64 -16 39 0 73 -4 76
-9 3 -4 -8 -98 -24 -207 -16 -109 -30 -202 -30 -206 0 -5 21 -8 48 -8 l47 0
29 198 c15 108 30 205 32 215 5 14 17 17 80 17 72 0 74 1 74 24 0 13 3 31 6
40 5 14 -16 16 -195 16 l-201 0 0 -24z"/>
<path d="M5865 3720 c-69 -137 -125 -252 -125 -255 0 -3 22 -5 48 -5 l48 0 29
60 29 60 92 0 91 0 12 -60 12 -60 48 0 48 0 -51 255 -51 255 -52 0 -53 0 -125
-250z m186 44 l16 -94 -68 0 -68 0 44 96 c25 53 45 99 45 102 0 3 3 2 8 -2 4
-4 14 -50 23 -102z"/>
<path d="M6390 3965 c0 -2 -16 -108 -35 -235 -19 -127 -35 -239 -35 -250 0
-19 7 -20 154 -20 l154 0 6 31 c3 17 6 35 6 40 0 5 -47 9 -105 9 -99 0 -105 1
-105 20 0 22 47 350 55 388 5 21 2 22 -45 22 -27 0 -50 -2 -50 -5z"/>
<path d="M6820 3965 c0 -2 -16 -108 -35 -235 -19 -127 -35 -239 -35 -250 0
-19 7 -20 154 -20 l154 0 6 31 c3 17 6 35 6 40 0 5 -47 9 -105 9 -99 0 -105 1
-105 20 0 22 47 350 55 388 5 21 2 22 -45 22 -27 0 -50 -2 -50 -5z"/>
<path d="M7250 3965 c0 -2 -16 -108 -35 -235 -19 -127 -35 -239 -35 -250 0
-19 7 -20 170 -20 155 0 170 2 170 18 0 9 3 27 6 40 6 22 6 22 -115 22 -137 0
-128 -7 -115 93 l7 46 106 3 106 3 3 38 3 37 -102 0 -101 0 7 58 c4 31 9 60
12 65 2 4 58 7 124 7 107 0 119 2 119 18 0 9 3 27 6 40 l6 22 -171 0 c-94 0
-171 -2 -171 -5z"/>
<path d="M7720 3967 c0 -1 -16 -107 -35 -236 -19 -128 -35 -241 -35 -252 0
-16 7 -19 44 -19 40 0 45 2 50 28 7 33 26 154 26 165 0 4 24 7 53 7 l53 0 25
-97 25 -98 51 -3 51 -3 -24 88 c-13 48 -27 98 -30 109 -4 17 1 26 23 39 68 40
102 148 69 214 -26 50 -65 61 -216 61 -71 0 -130 -1 -130 -3z m237 -91 c25
-22 26 -27 18 -61 -6 -21 -21 -47 -36 -57 -28 -21 -142 -37 -151 -22 -4 7 14
146 21 162 1 1 28 2 60 2 49 0 65 -5 88 -24z"/>
<path d="M8410 3965 c0 -2 -16 -108 -35 -235 -19 -127 -35 -239 -35 -250 0
-19 7 -20 170 -20 155 0 170 2 170 18 0 9 3 27 6 40 6 22 6 22 -115 22 -137 0
-128 -7 -115 93 l7 46 106 3 106 3 3 38 3 37 -102 0 -101 0 7 58 c4 31 9 60
12 65 2 4 58 7 124 7 107 0 119 2 119 18 0 9 3 27 6 40 l6 22 -171 0 c-94 0
-171 -2 -171 -5z"/>
<path d="M9925 3948 c-12 -55 -45 -314 -45 -351 0 -52 28 -100 71 -122 24 -13
52 -16 114 -13 68 2 88 7 122 30 60 40 79 90 108 279 33 217 35 201 -22 197
l-47 -3 -23 -155 c-29 -201 -36 -226 -76 -250 -69 -43 -147 -9 -147 63 0 32
34 275 45 325 5 21 2 22 -45 22 -43 0 -50 -3 -55 -22z"/>
<path d="M10460 3965 c0 -2 -16 -108 -35 -235 -19 -127 -35 -239 -35 -250 0
-19 7 -20 170 -20 155 0 170 2 170 18 0 9 3 27 6 40 6 22 6 22 -115 22 -137 0
-128 -7 -115 93 l7 46 106 3 106 3 3 38 3 37 -102 0 -101 0 7 58 c4 31 9 60
12 65 2 4 58 7 124 7 107 0 119 2 119 18 0 9 3 27 6 40 l6 22 -171 0 c-94 0
-171 -2 -171 -5z"/>
<path d="M10930 3965 c0 -2 -16 -108 -35 -235 -19 -127 -35 -239 -35 -250 0
-19 7 -20 154 -20 l154 0 6 31 c3 17 6 35 6 40 0 5 -47 9 -105 9 -99 0 -105 1
-105 20 0 22 47 350 55 388 5 21 2 22 -45 22 -27 0 -50 -2 -50 -5z"/>
<path d="M11375 3720 c-69 -137 -125 -252 -125 -255 0 -3 22 -5 48 -5 l48 0
29 60 29 60 92 0 91 0 12 -60 12 -60 48 0 48 0 -51 255 -51 255 -52 0 -53 0
-125 -250z m186 44 l16 -94 -68 0 -68 0 44 96 c25 53 45 99 45 102 0 3 3 2 8
-2 4 -4 14 -50 23 -102z"/>
<path d="M1145 3168 c-10 -40 -175 -872 -175 -880 0 -4 206 -8 458 -8 l458 0
88 438 c48 240 90 445 92 455 5 16 -21 17 -455 17 l-461 0 -5 -22z"/>
<path d="M2995 3168 c-10 -40 -175 -872 -175 -880 0 -4 206 -8 458 -8 l457 0
88 438 c49 240 91 445 93 455 5 16 -21 17 -455 17 l-461 0 -5 -22z"/>
<path d="M10880 2829 l0 -164 83 -1 c136 -1 231 -58 257 -154 l11 -40 206 0
206 0 -5 70 c-10 141 -109 280 -254 357 -104 55 -222 84 -371 90 l-133 6 0
-164z"/>
<path d="M5340 2280 l0 -690 220 0 220 0 0 690 0 690 -220 0 -220 0 0 -690z"/>
<path d="M6270 2720 l0 -250 -125 0 -125 0 0 -175 0 -175 125 0 125 0 0 -265
0 -265 220 0 220 0 0 690 0 690 -220 0 -220 0 0 -250z"/>
<path d="M7353 2852 c-23 -64 -136 -375 -251 -690 l-210 -572 226 2 225 3 204
685 c111 377 203 686 203 688 0 1 -80 2 -177 2 l-178 0 -42 -118z"/>
<path d="M8580 2280 l0 -690 200 0 200 0 -2 688 -3 687 -197 3 -198 2 0 -690z"/>
<path d="M9550 2634 c0 -185 -4 -334 -8 -332 -5 2 -79 86 -165 186 l-157 184
0 -339 0 -338 176 -203 175 -202 190 0 189 0 0 690 0 690 -200 0 -200 0 0
-336z"/>
<path d="M12263 2852 c-23 -64 -136 -375 -251 -690 l-210 -572 226 2 225 3
204 685 c111 377 203 686 203 688 0 1 -80 2 -177 2 l-178 0 -42 -118z"/>
<path d="M13490 2280 l0 -690 185 0 185 0 0 690 0 690 -185 0 -185 0 0 -690z"/>
<path d="M14100 2817 l0 -155 90 -4 c86 -3 91 -4 122 -36 30 -29 33 -38 33
-92 0 -54 -3 -63 -33 -92 -31 -32 -36 -33 -122 -36 l-90 -4 0 -151 0 -152 122
-252 123 -253 248 0 248 0 -29 53 c-16 28 -73 135 -127 237 -54 102 -110 208
-126 236 l-29 52 53 25 c149 74 239 253 210 421 -27 160 -121 274 -271 328
-47 17 -87 22 -239 26 l-183 4 0 -155z"/>
<path d="M10529 2908 c-162 -80 -274 -229 -316 -418 -22 -101 -22 -326 1 -435
26 -125 92 -249 170 -323 114 -106 234 -149 447 -159 124 -6 290 13 328 36 11
7 2 38 -43 152 l-58 144 -92 -3 c-120 -4 -188 19 -245 84 -75 85 -75 88 -79
552 -2 335 -6 412 -16 412 -8 0 -51 -19 -97 -42z"/>
<path d="M7946 2823 c-126 -419 -177 -610 -171 -642 19 -98 20 -91 -13 -91
-31 0 -32 -1 -62 -102 -17 -57 -38 -123 -46 -147 -8 -25 -14 -46 -14 -48 0 -2
56 -3 124 -3 l124 0 22 -72 c11 -40 25 -84 29 -98 l8 -25 231 -3 c128 -1 232
0 232 2 0 7 -451 1240 -455 1244 -2 2 -6 -5 -9 -15z"/>
<path d="M12856 2823 c-126 -419 -177 -610 -171 -642 19 -98 20 -91 -13 -91
-31 0 -32 -1 -62 -102 -17 -57 -38 -123 -46 -147 -8 -25 -14 -46 -14 -48 0 -2
56 -3 124 -3 l124 0 22 -72 c11 -40 25 -84 29 -98 l8 -25 231 -3 c128 -1 232
0 232 2 0 7 -451 1240 -455 1244 -2 2 -6 -5 -9 -15z"/>
<path d="M10910 2220 l0 -140 158 0 158 0 98 -245 98 -245 114 0 114 0 0 385
0 385 -370 0 -370 0 0 -140z"/>
<path d="M3736 2253 c-9 -33 -176 -864 -176 -879 0 -12 66 -14 458 -14 l457 0
91 455 91 455 -458 0 c-427 0 -458 -1 -463 -17z"/>
<path d="M2625 1328 c-15 -67 -175 -865 -175 -876 0 -10 95 -12 457 -10 l458
3 91 453 92 452 -459 0 -459 0 -5 -22z"/>
<path d="M5535 1051 c-122 -32 -195 -144 -195 -299 0 -61 5 -87 23 -122 34
-67 65 -84 155 -88 102 -5 153 20 200 98 17 30 32 58 32 62 0 4 -21 8 -46 8
-42 0 -49 -4 -87 -46 -35 -38 -48 -46 -80 -47 -28 -1 -44 6 -65 26 -25 25 -27
34 -27 105 0 42 7 94 14 115 19 55 66 105 106 113 50 9 104 -26 105 -68 0 -15
9 -18 50 -18 47 0 50 1 50 26 0 41 -29 92 -64 114 -36 22 -125 33 -171 21z"/>
<path d="M7625 1051 c-108 -28 -181 -116 -205 -250 -19 -107 5 -184 73 -235
34 -25 147 -34 202 -16 85 28 156 126 174 241 26 157 -35 253 -167 264 -26 2
-60 1 -77 -4z m111 -95 c24 -20 28 -32 32 -88 5 -80 -19 -172 -55 -210 -57
-60 -147 -58 -179 5 -24 45 -14 173 18 234 40 79 129 107 184 59z"/>
<path d="M8165 1051 c-122 -32 -195 -144 -195 -299 0 -61 5 -87 23 -122 34
-67 65 -84 155 -88 102 -5 153 20 200 98 17 30 32 58 32 62 0 4 -21 8 -46 8
-42 0 -49 -4 -87 -46 -35 -38 -48 -46 -80 -47 -28 -1 -44 6 -65 26 -25 25 -27
34 -27 105 0 42 7 94 14 115 19 55 66 105 106 113 50 9 104 -26 105 -68 0 -15
9 -18 50 -18 47 0 50 1 50 26 0 41 -29 92 -64 114 -36 22 -125 33 -171 21z"/>
<path d="M5945 800 c-69 -137 -125 -252 -125 -255 0 -3 22 -5 48 -5 l48 0 29
60 29 60 92 0 92 0 7 -42 c12 -77 12 -78 61 -78 24 0 44 3 44 8 0 4 -21 118
-47 255 l-48 247 -52 0 -53 0 -125 -250z m185 45 l17 -95 -68 0 -68 0 35 78
c56 120 57 122 62 117 2 -2 12 -47 22 -100z"/>
<path d="M6460 1047 c0 -1 -16 -107 -35 -236 -19 -128 -35 -241 -35 -252 0
-16 7 -19 44 -19 49 0 47 -3 61 100 14 105 11 100 69 100 l51 0 25 -97 25 -98
51 -3 51 -3 -29 105 -29 105 44 43 c62 59 80 127 53 192 -22 54 -63 66 -215
66 -72 0 -131 -1 -131 -3z m237 -93 c20 -20 24 -31 19 -56 -8 -40 -23 -58 -63
-75 -35 -14 -119 -18 -126 -5 -5 7 10 125 18 150 3 8 25 12 65 12 52 0 65 -4
87 -26z"/>
<path d="M6970 1047 c0 -1 -16 -107 -35 -236 -19 -128 -35 -241 -35 -252 0
-16 7 -19 44 -19 49 0 47 -3 61 100 14 105 11 100 69 100 l51 0 25 -97 25 -98
51 -3 51 -3 -29 105 -29 105 44 43 c62 59 80 127 53 192 -22 54 -63 66 -215
66 -72 0 -131 -1 -131 -3z m246 -92 c30 -41 9 -105 -41 -130 -18 -8 -59 -15
-90 -15 l-57 0 6 32 c3 18 9 56 13 86 l6 54 74 -4 c60 -3 78 -7 89 -23z"/>
<path d="M8560 1045 c0 -2 -16 -108 -35 -235 -19 -127 -35 -239 -35 -250 0
-19 7 -20 170 -20 l170 0 0 24 c0 13 3 31 6 40 5 14 -9 16 -115 16 -137 0
-128 -7 -115 94 l7 46 102 0 c110 0 115 2 115 56 0 24 -1 24 -101 24 l-101 0
7 58 c4 31 9 60 12 65 2 4 58 7 124 7 l119 0 0 24 c0 13 3 31 6 40 5 14 -13
16 -165 16 -94 0 -171 -2 -171 -5z"/>
<path d="M9030 1047 c0 -1 -16 -107 -35 -236 -19 -128 -35 -241 -35 -252 0
-16 7 -19 44 -19 49 0 47 -3 61 100 14 105 11 100 69 100 l51 0 25 -97 25 -98
51 -3 51 -3 -29 105 -29 105 44 43 c62 59 80 127 53 192 -22 54 -63 66 -215
66 -72 0 -131 -1 -131 -3z m237 -93 c20 -20 24 -31 19 -56 -8 -40 -23 -58 -63
-75 -35 -14 -119 -18 -126 -5 -5 7 10 125 18 150 3 8 25 12 65 12 52 0 65 -4
87 -26z"/>
<path d="M9540 1047 c0 -1 -16 -107 -35 -236 -19 -128 -35 -241 -35 -252 0
-16 7 -19 45 -19 25 0 45 1 46 3 0 1 17 116 38 255 l38 252 -49 0 c-26 0 -48
-1 -48 -3z"/>
<path d="M9805 800 c-69 -137 -125 -252 -125 -255 0 -3 22 -5 48 -5 l48 0 29
60 29 60 92 0 92 0 7 -42 c12 -77 12 -78 61 -78 24 0 44 3 44 8 0 4 -21 118
-47 255 l-48 247 -52 0 -53 0 -125 -250z m185 45 l17 -95 -68 0 -68 0 35 78
c56 120 57 122 62 117 2 -2 12 -47 22 -100z"/>
<path d="M10443 1038 c3 -7 31 -73 63 -147 l57 -133 -14 -109 -15 -109 47 0
47 0 10 63 c6 34 14 82 17 107 6 36 29 74 111 188 57 78 104 145 104 147 0 3
-22 5 -49 5 l-50 0 -68 -100 c-37 -55 -71 -100 -74 -100 -4 0 -24 44 -46 98
l-39 97 -53 3 c-41 2 -52 0 -48 -10z"/>
<path d="M11330 1046 c0 -3 -16 -109 -35 -236 -19 -127 -35 -239 -35 -250 0
-17 7 -20 44 -20 50 0 50 0 62 90 12 99 13 100 97 100 123 0 196 53 211 155 9
54 -13 107 -57 139 -25 18 -46 21 -158 24 -71 2 -129 1 -129 -2z m220 -81 c38
-20 48 -64 23 -108 -25 -43 -56 -57 -127 -57 l-58 0 6 33 c3 17 8 52 12 77 3
25 7 51 10 58 5 17 98 16 134 -3z"/>
<path d="M11820 1047 c0 -1 -16 -107 -35 -236 -19 -128 -35 -241 -35 -252 0
-16 7 -19 45 -19 25 0 45 1 46 3 0 1 17 116 38 255 l38 252 -49 0 c-26 0 -48
-1 -48 -3z"/>
<path d="M12060 1045 c0 -2 -16 -108 -35 -235 -19 -127 -35 -239 -35 -250 0
-17 7 -20 45 -20 38 0 45 3 50 23 4 20 45 302 45 313 0 2 4 4 8 4 5 0 48 -76
96 -170 l87 -170 45 0 c24 0 44 2 44 5 0 3 16 111 35 241 19 129 35 242 35
250 0 10 -12 14 -45 14 -51 0 -46 12 -70 -155 -20 -142 -25 -165 -34 -165 -4
0 -44 72 -90 160 l-82 160 -50 0 c-27 0 -49 -2 -49 -5z"/>
<path d="M12590 1028 c0 -13 -3 -33 -6 -45 -6 -22 -4 -23 70 -23 l77 0 -6 -32
c-8 -52 -55 -372 -55 -381 0 -4 21 -7 48 -5 l47 3 30 205 30 205 75 5 75 5 6
43 5 42 -198 0 -198 0 0 -22z"/>
<path d="M13085 1028 c-11 -54 -45 -313 -45 -349 0 -52 23 -95 63 -119 48 -30
169 -28 228 3 71 37 93 89 123 294 14 95 26 177 26 183 0 5 -22 10 -48 10
l-48 0 -23 -167 c-13 -93 -29 -182 -36 -200 -25 -61 -121 -84 -163 -40 -28 30
-28 61 2 255 l23 152 -48 0 c-42 0 -49 -3 -54 -22z"/>
<path d="M13620 1047 c0 -1 -16 -107 -35 -236 -19 -128 -35 -241 -35 -252 0
-16 7 -19 44 -19 49 0 47 -3 61 100 14 105 11 100 69 100 l51 0 25 -97 25 -98
51 -3 51 -3 -29 105 -29 105 44 43 c62 59 80 127 53 192 -22 54 -63 66 -215
66 -72 0 -131 -1 -131 -3z m237 -93 c20 -20 24 -31 19 -56 -8 -40 -23 -58 -63
-75 -35 -14 -119 -18 -126 -5 -5 7 10 125 18 150 3 8 25 12 65 12 52 0 65 -4
87 -26z"/>
<path d="M14145 800 c-69 -137 -125 -252 -125 -255 0 -3 22 -5 48 -5 l48 0 29
60 29 60 92 0 92 0 7 -42 c12 -77 12 -78 61 -78 24 0 44 3 44 8 0 4 -21 118
-47 255 l-48 247 -52 0 -53 0 -125 -250z m185 45 l17 -95 -68 0 -68 0 35 78
c56 120 57 122 62 117 2 -2 12 -47 22 -100z"/>
</g>
</svg>
